<!--?xml version="1.0" encoding="utf-8"?-->
<!-- Generator: Adobe Illustrator 18.0.0, SVG Export Plug-In . SVG Version: 6.00 Build 0)  -->

<svg version="1.1" id="_x32_" xmlns="http://www.w3.org/2000/svg" xmlns:xlink="http://www.w3.org/1999/xlink" x="0px" y="0px" viewBox="0 0 512 512" style="width: 256px; height: 256px; opacity: 1;" xml:space="preserve">
<style type="text/css">
	.st0{fill:#4B4B4B;}
</style>
<g>
	<path class="st0" d="M504.358,228.912c-26.078-42.437-94.703-119.8-248.426-119.8c-153.129,0-221.815,76.766-248.122,119.306
		c-10.414,16.844-10.414,38.318,0,55.161c26.307,42.54,94.992,119.307,248.122,119.307c153.723,0,222.348-77.363,248.426-119.8
		C514.547,266.508,514.547,245.491,504.358,228.912z M368.483,270.925c-6.457,50.567-47.346,91.35-97.93,97.664
		c-74.153,9.255-136.465-53.058-127.209-127.21c6.312-50.584,47.098-91.474,97.664-97.929
		C315.35,133.959,377.973,196.582,368.483,270.925z" style="fill: rgb(245, 242, 242);"></path>
	<path class="st0" d="M281.795,241.807c-6.305-1.814-11.459-6.93-13.305-13.226c-3.082-10.505,2.334-20.347,10.979-24.194
		c-7.178-3.304-15.123-5.14-23.537-5.14c-31.6,0-57.215,25.94-56.744,57.612c0.447,30.097,25.787,55.438,55.885,55.885
		c31.672,0.472,57.614-25.145,57.614-56.746c0-9.38-2.305-18.261-6.377-26.072C302.709,239.049,292.592,244.913,281.795,241.807z" style="fill: rgb(245, 242, 242);"></path>
</g>
</svg>
